<mxfile host="65bd71144e" scale="1.5" border="0">
    <diagram id="34Qk7VZ-o5Q2CYZlO3iw" name="Page-1">
        <mxGraphModel dx="611" dy="469" grid="1" gridSize="10" guides="1" tooltips="1" connect="1" arrows="1" fold="1" page="1" pageScale="1" pageWidth="850" pageHeight="1100" math="0" shadow="0">
            <root>
                <mxCell id="0"/>
                <mxCell id="1" parent="0"/>
                <mxCell id="2" value="TipoAvion" style="swimlane;" parent="1" vertex="1">
                    <mxGeometry x="80" y="80" width="130" height="80" as="geometry"/>
                </mxCell>
                <mxCell id="4" value="nombre&amp;nbsp; &amp;nbsp; &amp;nbsp; &amp;nbsp;(PK)" style="rounded=0;whiteSpace=wrap;html=1;align=left;" parent="2" vertex="1">
                    <mxGeometry y="20" width="130" height="20" as="geometry"/>
                </mxCell>
                <mxCell id="5" value="secciones_bodega" style="rounded=0;whiteSpace=wrap;html=1;align=left;" parent="2" vertex="1">
                    <mxGeometry y="40" width="130" height="20" as="geometry"/>
                </mxCell>
                <mxCell id="6" value="capacidad" style="rounded=0;whiteSpace=wrap;html=1;align=left;" parent="2" vertex="1">
                    <mxGeometry y="60" width="130" height="20" as="geometry"/>
                </mxCell>
                <mxCell id="19" value="Avion" style="swimlane;" parent="1" vertex="1">
                    <mxGeometry x="80" y="180" width="130" height="80" as="geometry"/>
                </mxCell>
                <mxCell id="9" value="nserie&amp;nbsp; &amp;nbsp; (PK)" style="rounded=0;whiteSpace=wrap;html=1;align=left;" parent="19" vertex="1">
                    <mxGeometry y="20" width="130" height="20" as="geometry"/>
                </mxCell>
                <mxCell id="10" value="horas_uso" style="rounded=0;whiteSpace=wrap;html=1;align=left;" parent="19" vertex="1">
                    <mxGeometry y="40" width="130" height="20" as="geometry"/>
                </mxCell>
                <mxCell id="11" value="modelo&amp;nbsp; &amp;nbsp; (FK)" style="rounded=0;whiteSpace=wrap;html=1;align=left;" parent="19" vertex="1">
                    <mxGeometry y="60" width="130" height="20" as="geometry"/>
                </mxCell>
                <mxCell id="20" value="Rol" style="swimlane;startSize=23;" parent="1" vertex="1">
                    <mxGeometry x="80" y="280" width="130" height="60" as="geometry"/>
                </mxCell>
                <mxCell id="25" value="nombre&amp;nbsp; &amp;nbsp; (PK)" style="rounded=0;whiteSpace=wrap;html=1;align=left;" parent="20" vertex="1">
                    <mxGeometry y="20" width="130" height="20" as="geometry"/>
                </mxCell>
                <mxCell id="26" value="descripcion" style="rounded=0;whiteSpace=wrap;html=1;align=left;" parent="20" vertex="1">
                    <mxGeometry y="40" width="130" height="20" as="geometry"/>
                </mxCell>
                <mxCell id="21" value="BagCart" style="swimlane;" parent="1" vertex="1">
                    <mxGeometry x="538" y="438" width="130" height="85" as="geometry"/>
                </mxCell>
                <mxCell id="27" value="marca" style="rounded=0;whiteSpace=wrap;html=1;align=left;" parent="21" vertex="1">
                    <mxGeometry y="44" width="130" height="20" as="geometry"/>
                </mxCell>
                <mxCell id="28" value="modelo" style="rounded=0;whiteSpace=wrap;html=1;align=left;" parent="21" vertex="1">
                    <mxGeometry y="64" width="130" height="20" as="geometry"/>
                </mxCell>
                <mxCell id="54" value="id&amp;nbsp; &amp;nbsp; (PK)" style="rounded=0;whiteSpace=wrap;html=1;align=left;" parent="21" vertex="1">
                    <mxGeometry y="24" width="130" height="20" as="geometry"/>
                </mxCell>
                <mxCell id="22" value="Vuelo" style="swimlane;" parent="1" vertex="1">
                    <mxGeometry x="280" y="80" width="130" height="64" as="geometry"/>
                </mxCell>
                <mxCell id="12" value="numero&amp;nbsp; &amp;nbsp; (PK)" style="rounded=0;whiteSpace=wrap;html=1;align=left;" parent="22" vertex="1">
                    <mxGeometry y="24" width="130" height="20" as="geometry"/>
                </mxCell>
                <mxCell id="13" value="avion&amp;nbsp; &amp;nbsp; (FK)" style="rounded=0;whiteSpace=wrap;html=1;align=left;" parent="22" vertex="1">
                    <mxGeometry y="44" width="130" height="20" as="geometry"/>
                </mxCell>
                <mxCell id="35" value="Maleta" style="swimlane;" parent="1" vertex="1">
                    <mxGeometry x="530" y="105" width="130" height="143" as="geometry"/>
                </mxCell>
                <mxCell id="48" value="numero&amp;nbsp; &amp;nbsp; (PK)" style="rounded=0;whiteSpace=wrap;html=1;align=left;" parent="35" vertex="1">
                    <mxGeometry y="23" width="130" height="20" as="geometry"/>
                </mxCell>
                <mxCell id="49" value="cedula_usuario&amp;nbsp; &amp;nbsp; (FK)" style="rounded=0;whiteSpace=wrap;html=1;align=left;" parent="35" vertex="1">
                    <mxGeometry y="43" width="130" height="20" as="geometry"/>
                </mxCell>
                <mxCell id="50" value="color" style="rounded=0;whiteSpace=wrap;html=1;align=left;" parent="35" vertex="1">
                    <mxGeometry y="63" width="130" height="20" as="geometry"/>
                </mxCell>
                <mxCell id="51" value="peso" style="rounded=0;whiteSpace=wrap;html=1;align=left;" parent="35" vertex="1">
                    <mxGeometry y="83" width="130" height="20" as="geometry"/>
                </mxCell>
                <mxCell id="52" value="costo_envio" style="rounded=0;whiteSpace=wrap;html=1;align=left;" parent="35" vertex="1">
                    <mxGeometry y="103" width="130" height="20" as="geometry"/>
                </mxCell>
                <mxCell id="53" value="nvuelo&amp;nbsp; &amp;nbsp; (FK)" style="rounded=0;whiteSpace=wrap;html=1;align=left;" parent="35" vertex="1">
                    <mxGeometry y="123" width="130" height="20" as="geometry"/>
                </mxCell>
                <mxCell id="37" value="RelScanRayosXMaleta" style="swimlane;" parent="1" vertex="1">
                    <mxGeometry x="280" y="438" width="160" height="103" as="geometry"/>
                </mxCell>
                <mxCell id="30" value="cedula_trabajador&amp;nbsp; &amp;nbsp; (FK)" style="rounded=0;whiteSpace=wrap;html=1;align=left;" parent="37" vertex="1">
                    <mxGeometry y="23" width="160" height="20" as="geometry"/>
                </mxCell>
                <mxCell id="31" value="numero_maleta&amp;nbsp; &amp;nbsp; (FK)" style="rounded=0;whiteSpace=wrap;html=1;align=left;" parent="37" vertex="1">
                    <mxGeometry y="43" width="160" height="20" as="geometry"/>
                </mxCell>
                <mxCell id="32" value="aceptada" style="rounded=0;whiteSpace=wrap;html=1;align=left;" parent="37" vertex="1">
                    <mxGeometry y="63" width="160" height="20" as="geometry"/>
                </mxCell>
                <mxCell id="33" value="comentarios" style="rounded=0;whiteSpace=wrap;html=1;align=left;" parent="37" vertex="1">
                    <mxGeometry y="83" width="160" height="20" as="geometry"/>
                </mxCell>
                <mxCell id="38" value="Trabajador" style="swimlane;startSize=23;" parent="1" vertex="1">
                    <mxGeometry x="80" y="350" width="130" height="143.5" as="geometry"/>
                </mxCell>
                <mxCell id="14" value="cedula&amp;nbsp; &amp;nbsp; (PK)" style="rounded=0;whiteSpace=wrap;html=1;align=left;" parent="38" vertex="1">
                    <mxGeometry y="23.5" width="130" height="20" as="geometry"/>
                </mxCell>
                <mxCell id="15" value="password_hash" style="rounded=0;whiteSpace=wrap;html=1;align=left;" parent="38" vertex="1">
                    <mxGeometry y="43.5" width="130" height="20" as="geometry"/>
                </mxCell>
                <mxCell id="16" value="nombre" style="rounded=0;whiteSpace=wrap;html=1;align=left;" parent="38" vertex="1">
                    <mxGeometry y="63.5" width="130" height="20" as="geometry"/>
                </mxCell>
                <mxCell id="17" value="primer_apellido" style="rounded=0;whiteSpace=wrap;html=1;align=left;" parent="38" vertex="1">
                    <mxGeometry y="83.5" width="130" height="20" as="geometry"/>
                </mxCell>
                <mxCell id="18" value="segundo_apellido" style="rounded=0;whiteSpace=wrap;html=1;align=left;" parent="38" vertex="1">
                    <mxGeometry y="103.5" width="130" height="20" as="geometry"/>
                </mxCell>
                <mxCell id="29" value="rol&amp;nbsp; &amp;nbsp; (FK)" style="rounded=0;whiteSpace=wrap;html=1;align=left;" parent="38" vertex="1">
                    <mxGeometry y="123.5" width="130" height="20" as="geometry"/>
                </mxCell>
                <mxCell id="40" value="Usuario" style="swimlane;startSize=23;" parent="1" vertex="1">
                    <mxGeometry x="530" y="270" width="130" height="143.5" as="geometry"/>
                </mxCell>
                <mxCell id="41" value="cedula&amp;nbsp; &amp;nbsp; (PK)" style="rounded=0;whiteSpace=wrap;html=1;align=left;" parent="40" vertex="1">
                    <mxGeometry y="23.5" width="130" height="20" as="geometry"/>
                </mxCell>
                <mxCell id="42" value="password_hash" style="rounded=0;whiteSpace=wrap;html=1;align=left;" parent="40" vertex="1">
                    <mxGeometry y="43.5" width="130" height="20" as="geometry"/>
                </mxCell>
                <mxCell id="43" value="nombre" style="rounded=0;whiteSpace=wrap;html=1;align=left;" parent="40" vertex="1">
                    <mxGeometry y="63.5" width="130" height="20" as="geometry"/>
                </mxCell>
                <mxCell id="44" value="primer_apellido" style="rounded=0;whiteSpace=wrap;html=1;align=left;" parent="40" vertex="1">
                    <mxGeometry y="83.5" width="130" height="20" as="geometry"/>
                </mxCell>
                <mxCell id="45" value="segundo_apellido" style="rounded=0;whiteSpace=wrap;html=1;align=left;" parent="40" vertex="1">
                    <mxGeometry y="103.5" width="130" height="20" as="geometry"/>
                </mxCell>
                <mxCell id="46" value="telefono" style="rounded=0;whiteSpace=wrap;html=1;align=left;" parent="40" vertex="1">
                    <mxGeometry y="123.5" width="130" height="20" as="geometry"/>
                </mxCell>
                <mxCell id="72" value="RelScanAsignacionMaleta" style="swimlane;" parent="1" vertex="1">
                    <mxGeometry x="270" y="352.5" width="180" height="61" as="geometry"/>
                </mxCell>
                <mxCell id="67" value="cedula_trabajador&amp;nbsp; &amp;nbsp; (FK)" style="rounded=0;whiteSpace=wrap;html=1;align=left;" parent="72" vertex="1">
                    <mxGeometry y="20.5" width="180" height="20" as="geometry"/>
                </mxCell>
                <mxCell id="68" value="numero_maleta&amp;nbsp; &amp;nbsp; (FK)" style="rounded=0;whiteSpace=wrap;html=1;align=left;" parent="72" vertex="1">
                    <mxGeometry y="40.5" width="180" height="20" as="geometry"/>
                </mxCell>
                <mxCell id="77" value="RelMaletaBagCart" style="swimlane;" parent="1" vertex="1">
                    <mxGeometry x="280" y="270" width="160" height="63" as="geometry"/>
                </mxCell>
                <mxCell id="78" value="id_bacgcart&amp;nbsp; &amp;nbsp; (FK)" style="rounded=0;whiteSpace=wrap;html=1;align=left;" parent="77" vertex="1">
                    <mxGeometry y="23" width="160" height="20" as="geometry"/>
                </mxCell>
                <mxCell id="79" value="numero_maleta&amp;nbsp; &amp;nbsp; (FK)" style="rounded=0;whiteSpace=wrap;html=1;align=left;" parent="77" vertex="1">
                    <mxGeometry y="43" width="160" height="20" as="geometry"/>
                </mxCell>
                <mxCell id="82" value="RelVueloBagCart" style="swimlane;" parent="1" vertex="1">
                    <mxGeometry x="280" y="165" width="160" height="83" as="geometry"/>
                </mxCell>
                <mxCell id="83" value="sello&amp;nbsp; &amp;nbsp; (PK)" style="rounded=0;whiteSpace=wrap;html=1;align=left;" parent="82" vertex="1">
                    <mxGeometry y="23" width="160" height="20" as="geometry"/>
                </mxCell>
                <mxCell id="84" value="id_bagcart&amp;nbsp; &amp;nbsp; (FK)" style="rounded=0;whiteSpace=wrap;html=1;align=left;" parent="82" vertex="1">
                    <mxGeometry y="43" width="160" height="20" as="geometry"/>
                </mxCell>
                <mxCell id="85" value="nvuelo&amp;nbsp; &amp;nbsp; (FK)" style="rounded=0;whiteSpace=wrap;html=1;align=left;" parent="82" vertex="1">
                    <mxGeometry y="63" width="160" height="20" as="geometry"/>
                </mxCell>
                <mxCell id="94" style="edgeStyle=orthogonalEdgeStyle;html=1;exitX=0;exitY=0.25;exitDx=0;exitDy=0;entryX=0;entryY=0.5;entryDx=0;entryDy=0;endArrow=classic;endFill=1;startArrow=none;startFill=0;" parent="1" source="25" target="29" edge="1">
                    <mxGeometry relative="1" as="geometry">
                        <Array as="points">
                            <mxPoint x="50" y="305"/>
                            <mxPoint x="50" y="484"/>
                        </Array>
                    </mxGeometry>
                </mxCell>
                <mxCell id="95" style="edgeStyle=orthogonalEdgeStyle;html=1;exitX=1;exitY=0.5;exitDx=0;exitDy=0;entryX=0;entryY=0.5;entryDx=0;entryDy=0;endArrow=classic;endFill=1;" parent="1" source="14" target="67" edge="1">
                    <mxGeometry relative="1" as="geometry">
                        <Array as="points">
                            <mxPoint x="210" y="370"/>
                            <mxPoint x="240" y="370"/>
                            <mxPoint x="240" y="383"/>
                        </Array>
                    </mxGeometry>
                </mxCell>
                <mxCell id="97" style="edgeStyle=orthogonalEdgeStyle;html=1;exitX=1;exitY=0.5;exitDx=0;exitDy=0;entryX=0;entryY=0.5;entryDx=0;entryDy=0;endArrow=classic;endFill=1;" parent="1" source="14" target="30" edge="1">
                    <mxGeometry relative="1" as="geometry">
                        <Array as="points">
                            <mxPoint x="210" y="390"/>
                            <mxPoint x="245" y="390"/>
                            <mxPoint x="245" y="471"/>
                        </Array>
                    </mxGeometry>
                </mxCell>
                <mxCell id="99" style="edgeStyle=orthogonalEdgeStyle;html=1;exitX=0;exitY=0.5;exitDx=0;exitDy=0;entryX=0;entryY=0.5;entryDx=0;entryDy=0;endArrow=classic;endFill=1;" parent="1" source="12" target="85" edge="1">
                    <mxGeometry relative="1" as="geometry">
                        <Array as="points">
                            <mxPoint x="260" y="114"/>
                            <mxPoint x="260" y="238"/>
                        </Array>
                    </mxGeometry>
                </mxCell>
                <mxCell id="100" style="edgeStyle=orthogonalEdgeStyle;html=1;exitX=1;exitY=0.5;exitDx=0;exitDy=0;entryX=1;entryY=0.5;entryDx=0;entryDy=0;endArrow=none;endFill=0;" parent="1" source="49" target="41" edge="1">
                    <mxGeometry relative="1" as="geometry">
                        <Array as="points">
                            <mxPoint x="680" y="158"/>
                            <mxPoint x="680" y="304"/>
                        </Array>
                    </mxGeometry>
                </mxCell>
                <mxCell id="101" style="edgeStyle=orthogonalEdgeStyle;html=1;exitX=0;exitY=0.5;exitDx=0;exitDy=0;entryX=1;entryY=0.25;entryDx=0;entryDy=0;endArrow=none;endFill=0;startArrow=classic;startFill=1;" parent="1" source="53" target="12" edge="1">
                    <mxGeometry relative="1" as="geometry">
                        <Array as="points">
                            <mxPoint x="470" y="238"/>
                            <mxPoint x="470" y="109"/>
                        </Array>
                    </mxGeometry>
                </mxCell>
                <mxCell id="108" style="edgeStyle=orthogonalEdgeStyle;html=1;exitX=1;exitY=0.5;exitDx=0;exitDy=0;entryX=0;entryY=0.75;entryDx=0;entryDy=0;endArrow=none;endFill=0;startArrow=classic;startFill=1;" parent="1" source="79" target="48" edge="1">
                    <mxGeometry relative="1" as="geometry">
                        <Array as="points">
                            <mxPoint x="480" y="323"/>
                            <mxPoint x="480" y="143"/>
                        </Array>
                    </mxGeometry>
                </mxCell>
                <mxCell id="109" style="edgeStyle=orthogonalEdgeStyle;html=1;exitX=1;exitY=0.5;exitDx=0;exitDy=0;entryX=0;entryY=0.25;entryDx=0;entryDy=0;endArrow=none;endFill=0;startArrow=classic;startFill=1;" parent="1" source="31" target="48" edge="1">
                    <mxGeometry relative="1" as="geometry">
                        <Array as="points">
                            <mxPoint x="500" y="491"/>
                            <mxPoint x="500" y="133"/>
                        </Array>
                    </mxGeometry>
                </mxCell>
                <mxCell id="111" style="edgeStyle=orthogonalEdgeStyle;html=1;exitX=1;exitY=0.5;exitDx=0;exitDy=0;entryX=0;entryY=0.25;entryDx=0;entryDy=0;endArrow=none;endFill=0;startArrow=classic;startFill=1;" parent="1" source="78" target="54" edge="1">
                    <mxGeometry relative="1" as="geometry"/>
                </mxCell>
                <mxCell id="112" style="edgeStyle=orthogonalEdgeStyle;html=1;exitX=1;exitY=0.25;exitDx=0;exitDy=0;entryX=0;entryY=0.75;entryDx=0;entryDy=0;endArrow=none;endFill=0;startArrow=classic;startFill=1;" parent="1" source="84" target="54" edge="1">
                    <mxGeometry relative="1" as="geometry">
                        <Array as="points">
                            <mxPoint x="460" y="213"/>
                            <mxPoint x="460" y="477"/>
                        </Array>
                    </mxGeometry>
                </mxCell>
                <mxCell id="114" style="edgeStyle=orthogonalEdgeStyle;html=1;exitX=1;exitY=0.5;exitDx=0;exitDy=0;entryX=0;entryY=0.5;entryDx=0;entryDy=0;endArrow=classic;endFill=1;" parent="1" source="9" target="13" edge="1">
                    <mxGeometry relative="1" as="geometry"/>
                </mxCell>
                <mxCell id="136" style="edgeStyle=orthogonalEdgeStyle;html=1;exitX=0;exitY=0.5;exitDx=0;exitDy=0;entryX=0;entryY=0.5;entryDx=0;entryDy=0;endArrow=classicThin;endFill=1;" parent="1" source="4" target="11" edge="1">
                    <mxGeometry relative="1" as="geometry">
                        <Array as="points">
                            <mxPoint x="50" y="110"/>
                            <mxPoint x="50" y="250"/>
                        </Array>
                    </mxGeometry>
                </mxCell>
            </root>
        </mxGraphModel>
    </diagram>
</mxfile>